<svg width="998" height="200" xmlns="http://www.w3.org/2000/svg" xml:space="preserve" version="1.1">

 <g>
  <title>Layer 1</title>
  <g id="793377" transform="matrix(0.0623 0 0 -0.0475 188.0214 97.2562)">
   <path id="svg_1" fill-rule=" nonzero" fill="rgb(25, 25, 25)" stroke-miterlimit="4" stroke-linejoin=" miter" stroke-dashoffset="0" stroke-dasharray=" none" stroke=" none" stroke-linecap=" butt" d="m-3017.5,1148l0,-900l53,-6c55,-7 130,6 177,30c58,30 114,108 168,236c29,68 64,137 77,155c47,62 139,83 189,43c15,-12 53,-58 84,-102c73,-104 110,-141 166,-162c92,-35 141,-3 197,130c67,162 169,165 246,7c27,-56 28,-62 31,-257c8,-459 -37,-913 -144,-1460c-63,-318 -75,-425 -63,-535c15,-130 54,-215 134,-289c68,-63 124,-85 215,-85c128,0 229,65 287,187c77,158 79,254 13,687c-41,268 -67,495 -85,750c-20,259 -34,811 -23,897c14,120 91,228 196,276c38,18 66,22 142,22c114,0 165,-19 235,-90c105,-105 128,-234 81,-454c-48,-223 -31,-328 66,-417c53,-49 104,-68 164,-61c83,9 141,68 175,177c34,111 26,204 -37,423c-48,167 -44,218 22,296c55,66 166,90 254,55c66,-27 83,-60 91,-184c7,-115 28,-174 71,-204c51,-36 126,-9 159,57c23,44 26,90 18,252c-5,96 14,139 74,169c82,40 139,-2 211,-158c50,-108 93,-151 159,-161c146,-22 255,100 297,334c32,176 154,293 284,270c121,-22 148,-115 105,-363c-31,-171 -30,-321 0,-400c14,-35 40,-76 65,-101c127,-126 371,-86 444,73c38,84 29,162 -47,383c-89,260 -97,382 -35,569c61,180 164,290 274,290c75,0 118,-39 165,-150c48,-114 102,-160 188,-160c95,0 118,39 147,253c11,77 27,170 36,206c38,151 131,278 250,340l59,30l-3017,1l-3018,0l0,-899z"/>
  </g>
  <g id="833889" transform="matrix(0.0703 0 0 -0.0654 481.8249 63.9807)">
   <path id="svg_2" fill-rule=" nonzero" fill="rgb(25, 25, 25)" stroke-miterlimit="4" stroke-linejoin=" miter" stroke-dashoffset="0" stroke-dasharray=" none" stroke=" none" stroke-linecap=" butt" d="m-2607.58887,957.79736c189,-60 386,-297 487,-585c39,-114 69,-165 119,-204c68,-54 127,-75 211,-75c64,0 83,4 128,29c83,45 116,93 197,290c57,140 110,195 186,195c51,0 80,-27 149,-140c98,-159 175,-213 265,-189c49,13 79,36 171,127c90,89 134,112 214,112c84,0 122,-19 211,-105c73,-71 79,-75 123,-75c59,0 69,15 108,162c34,129 47,158 85,188c23,18 38,21 79,18c69,-6 106,-35 144,-111c46,-94 62,-195 62,-397c1,-192 -9,-296 -48,-529c-22,-128 -25,-177 -22,-280c5,-141 23,-201 77,-270c70,-89 230,-124 329,-73c82,43 135,149 152,306c12,106 6,190 -39,491c-92,627 -48,945 131,945c82,0 153,-41 187,-109c11,-20 33,-90 50,-156c38,-145 63,-186 126,-210c64,-25 107,-10 179,60c60,59 74,65 99,37c39,-43 49,-94 56,-272c9,-224 26,-262 115,-264c131,-3 168,118 131,429c-23,193 -17,345 15,430c29,77 85,135 129,135c73,0 118,-51 160,-180c27,-84 53,-125 93,-150c78,-47 107,-22 187,164c66,150 92,196 142,240l39,36l-2642,-1c-2595,0 -2642,0 -2585,-19z"/>
  </g>
  <g id="239999" transform="matrix(0.0539 0 0 -0.0539 805.586 93.1438)">
   <path id="svg_3" fill-rule=" nonzero" fill="rgb(25, 25, 25)" stroke-miterlimit="4" stroke-linejoin=" miter" stroke-dashoffset="0" stroke-dasharray=" none" stroke=" none" stroke-linecap=" butt" d="m-3482.70466,1753.69193c124,-29 248,-132 348,-287c109,-170 129,-180 234,-117c32,20 69,38 82,41c39,10 109,-23 153,-73c58,-66 72,-123 64,-250c-6,-93 -5,-105 16,-148c37,-75 119,-104 190,-66c21,11 44,36 58,62c22,41 23,51 17,174c-6,124 -5,132 17,169c29,49 79,76 139,76c55,0 72,-16 119,-109c45,-91 68,-111 128,-111c62,0 90,24 130,113c41,90 81,109 127,62c36,-35 33,-94 -15,-338c-52,-270 -64,-371 -51,-441c21,-112 78,-178 166,-191c80,-12 151,56 181,175c21,83 15,151 -27,306c-27,100 -32,138 -33,234c-1,98 2,120 19,149c29,49 49,59 83,41c30,-17 57,-65 103,-186c58,-154 144,-231 245,-221c73,7 104,27 164,101c78,99 153,111 200,34c28,-46 36,-79 70,-278c49,-288 84,-369 180,-417c85,-43 137,-28 209,63c62,79 104,100 166,83c83,-23 105,-100 105,-365c0,-308 36,-394 165,-394c84,0 142,50 172,148c23,77 21,267 -6,487c-32,257 -26,409 20,543c45,129 129,210 209,199c82,-11 138,-81 190,-237c54,-161 96,-220 171,-240c93,-25 157,19 239,166c68,122 128,185 192,203c90,25 176,-6 257,-94c122,-133 149,-343 90,-695c-60,-354 -25,-499 136,-572c39,-17 69,-22 135,-23c94,0 141,17 192,72c36,37 76,126 89,199c18,97 5,288 -31,444c-37,158 -37,243 -1,325c43,97 135,163 242,172c136,13 231,-93 276,-307c14,-68 18,-130 18,-315c-1,-300 -29,-538 -120,-1011c-54,-280 -46,-438 28,-578c121,-229 389,-292 564,-133c134,123 175,356 114,663c-25,131 -56,341 -76,524c-22,192 -31,631 -16,728c12,80 41,146 66,156c61,23 111,-25 149,-141l25,-78l1,758l0,757l-3557,-1c-2117,-1 -3543,-5 -3520,-10z"/>
  </g>
 </g>
</svg>