<?xml version="1.0" encoding="UTF-8"?>
<svg color-interpolation-filters="sRGB" style="margin:auto" data-v-6805eed4="" version="1.0" viewBox="75 88 195 75" xmlns="http://www.w3.org/2000/svg">
<g class="icon-text-wrapper icon-svg-group iconsvg" transform="translate(74.685 95.599)" fill="#B44287" data-v-6805eed4="">
<g class="iconsvg-imagesvg" transform="translate(0)">
<g fill="#f7398a">
<svg class="image-svg-svg primary" width="60" height="58.802" filter="url(#colors7420916214)" overflow="visible" filtersec="colorsf7441721254">
<svg enable-background="new 0 0 100 100" version="1.1" viewBox="15 35 70 82" xml:space="preserve" xmlns="http://www.w3.org/2000/svg" xmlns:xlink="http://www.w3.org/1999/xlink">
        <g transform="translate(0 28.63)">
          <g transform="scale(.99397)">
          <g fill="#F7398A" filter="url(#a)" stroke="#8F2D90" stroke-linecap="round" stroke-linejoin="round" stroke-width=".7" data-gra-ignore-stroke="true" paint-order="stroke">
          <path d="m23.65 50.887c0.627-2.825-0.331-5.764-2.501-7.674-0.272-0.242-0.455-0.568-0.518-0.928-0.15-0.867 0.433-1.693 1.301-1.842 4.319-0.744 7.218-4.848 6.474-9.164-0.08-0.465-0.2-0.922-0.36-1.363-0.125-0.344-0.128-0.717-0.011-1.062 0.286-0.832 1.193-1.275 2.026-0.99 4.146 1.42 8.657-0.789 10.078-4.936 0.937-2.734 0.311-5.764-1.633-7.904 1.711-0.592 3.463-1.055 5.243-1.391 20.114-3.785 39.491 9.451 43.278 29.564 3.785 20.116-9.449 39.491-29.564 43.28-20.115 3.785-39.49-9.451-43.277-29.566 4.276 0.95 8.515-1.747 9.464-6.024zm-6.991 8.134c4.951 18.748 24.164 29.932 42.914 24.98 18.748-4.953 29.934-24.166 24.98-42.915-4.951-18.748-24.164-29.934-42.912-24.982-0.025 8e-3 -0.051 0.016-0.076 0.021 1 2.113 1.22 4.514 0.618 6.773-1.404 5.273-6.819 8.412-12.094 7.008 0.035 0.119 0.067 0.24 0.097 0.363 1.3 5.301-1.945 10.654-7.247 11.951 1.643 1.666 2.643 3.857 2.82 6.189 0.416 5.445-3.658 10.196-9.1 10.612z" fill="#8F2D90" filter="url(#colors7420916214)"/>
          <g fill="#8F2D90">
            <polygon points="57.932 26.511 54.518 31.009 59.176 36.287 63.988 27.751"/>
          </g>
          <g fill="#f7398a">
            <polyline points="75.477 44.507 70.508 46.214 73.303 51.178 75.477 44.507"/>
          </g>
          <g fill="#8F2D90">
            <polyline points="59.369 57.875 57.521 61.836 61.008 63.125 61.008 59.379 59.369 57.875"/>
          </g>
          <g fill="#f7398a">
            <polyline points="45.215 42.945 42.345 47.876 44.713 49.439 47.684 47.273 47.684 43.248 45.215 42.945"/>
          </g>
          <g fill="#8F2D90">
            <polyline points="33.578 60.453 31.79 64.477 34.792 66.029 35.198 63.441 33.578 60.453"/>
          </g>
          <g fill="#f7398a">
            <polyline points="44.18 29.833 41.373 33.363 43.614 34.333 44.925 33.08 45.509 30.603 44.18 29.833"/>
          </g>
          <g fill="#f7398a">
            <polyline points="75.107 63.062 72.543 66.084 74.904 68.723 76.467 67.928 76.262 65.922 75.107 63.062"/>
          </g>
          <g fill="#f7398a">
            <polygon points="45.383 18.119 45.663 22.121 48.502 20.537 48.502 18.05 45.383 18.05"/>
          </g>
          <g fill="#8F2D90">
            <polyline points="47.261 57.15 45.905 59.072 47.368 60.791 49.047 59.184 48.452 57.451 47.261 57.15"/>
          </g>
          <g fill="#f7398a">
            <polyline points="39.678 72.969 37.953 75.693 40.076 78.119 42.853 76.543 42.095 73.672 39.678 72.969"/>
          </g>
          <g fill="#8F2D90">
            <polyline points="75.584 29.636 72.705 32.017 74.492 35.291 76.279 32.91 75.584 29.636"/>
          </g>
          <g fill="#f7398a">
            <polyline points="55.016 73.496 62.492 70.807 65.084 76.984 61.494 80.369 55.414 77.184 55.016 73.496"/>
          </g>
          <path d="m31.667 13.927c0.604 3.453-1.705 6.74-5.157 7.346-3.453 0.605-6.742-1.705-7.347-5.158 3.517-2.293 7.482-3.812 11.632-4.461 0.434 0.693 0.731 1.465 0.872 2.273zm-2.014-0.084c-2.875 0.607-5.633 1.666-8.175 3.139 1.082 2.172 3.721 3.059 5.896 1.977 1.887-0.94 2.843-3.084 2.279-5.116z"/>
          <g fill="#8F2D90">
            <path d="m13.903 19.224c-1.443 1.523-2.547 3.338-3.236 5.32 1.295 1.182 3.302 1.09 4.482-0.205s1.09-3.303-0.206-4.484c-0.303-0.275-0.655-0.49-1.04-0.631z"/>
          </g>
          <g fill="#8F2D90">
            <path d="m21.631 31.462c0-1.383-1.118-2.5-2.498-2.5s-2.5 1.117-2.5 2.5c0 1.381 1.12 2.498 2.5 2.498s2.498-1.117 2.498-2.498z"/>
          </g>
          </g>
          </g>
          </g>
        </svg>
</svg>
</g>
</g>
<g transform="translate(67 4.9128)">
<g class="iconsvg-namesvg tp-name" fill-rule="">
<g transform="scale(1)">
<g filter="url(#a)" stroke="#B44287" stroke-linecap="round" stroke-linejoin="round" stroke-width="2" data-gra-ignore-stroke="true" paint-order="stroke">
<path transform="translate(-.61 25.27)" d="m18.54-25.02q0.82 0 1.48 0.62t0.66 1.58q0 0.32-0.09 0.66t-0.3 0.66l-8.08 11.57 0.64-2.46v10.22q0 0.92-0.62 1.55-0.63 0.62-1.45 0.62-0.88 0-1.51-0.62-0.62-0.63-0.62-1.55v-9.93l0.28 1.14-7.68-10.22q-0.36-0.46-0.5-0.89t-0.14-0.78q0-0.96 0.74-1.57 0.75-0.6 1.53-0.6 1 0 1.75 0.99l6.83 9.44-1-0.15 6.3-9.21q0.75-1.07 1.78-1.07zm23.68 0.07q0.92 0 1.49 0.62t0.57 1.55v12.88q0 2.96-1.26 5.24-1.27 2.28-3.47 3.56-2.21 1.28-5.13 1.28t-5.14-1.28q-2.23-1.28-3.49-3.56t-1.26-5.24v-12.88q0-0.93 0.64-1.55t1.64-0.62q0.81 0 1.47 0.62t0.66 1.55v12.88q0 1.78 0.77 3.08 0.76 1.3 2.03 2.01 1.26 0.72 2.68 0.72 1.53 0 2.85-0.72 1.32-0.71 2.14-2.01 0.81-1.3 0.81-3.08v-12.88q0-0.93 0.54-1.55 0.53-0.62 1.46-0.62zm25.56 24.95q-1 0-1.6-0.82l-8.23-10.82 3.24-3.31 8.51 11.25q0.5 0.67 0.5 1.46 0 0.99-0.75 1.62-0.75 0.62-1.67 0.62zm0.42-25.09q0.86 0 1.41 0.69t0.55 1.41q0 0.74-0.64 1.38l-14.91 14.28-0.18-5.09 12.03-11.85q0.82-0.82 1.74-0.82zm-15.37 25.09q-1 0-1.6-0.62-0.61-0.63-0.61-1.55v-20.57q0-0.93 0.64-1.55 0.64-0.63 1.64-0.63t1.58 0.63q0.59 0.62 0.59 1.55v20.57q0 0.92-0.61 1.55-0.6 0.62-1.63 0.62zm26.55-22.74v20.57q0 0.92-0.67 1.55-0.68 0.62-1.57 0.62-1 0-1.6-0.62-0.61-0.63-0.61-1.55v-20.57q0-0.93 0.65-1.55 0.64-0.63 1.63-0.63 0.86 0 1.52 0.63 0.65 0.62 0.65 1.55zm8.51-2.18h11.93q0.92 0 1.55 0.59 0.62 0.59 0.62 1.51 0 0.89-0.62 1.45-0.63 0.55-1.55 0.55h-9.97l0.32-0.61v6.94l-0.28-0.28h8.33q0.92 0 1.54 0.59 0.63 0.58 0.63 1.51 0 0.89-0.63 1.44-0.62 0.55-1.54 0.55h-8.23l0.18-0.28v7.19l-0.28-0.32h9.93q0.92 0 1.55 0.62 0.62 0.62 0.62 1.44 0 0.89-0.62 1.46-0.63 0.57-1.55 0.57h-11.93q-0.92 0-1.54-0.62-0.63-0.63-0.63-1.55v-20.57q0-0.93 0.63-1.55 0.62-0.63 1.54-0.63zm27.2 25.28q-2.49 0-4.48-0.63-2-0.62-3.81-2.19-0.47-0.39-0.71-0.89-0.25-0.49-0.25-0.99 0-0.82 0.58-1.44 0.59-0.63 1.48-0.63 0.68 0 1.21 0.43 1.35 1.1 2.69 1.67 1.33 0.57 3.29 0.57 1.32 0 2.42-0.41t1.78-1.1 0.68-1.58q0-1.07-0.64-1.82t-1.96-1.26q-1.32-0.52-3.35-0.8-1.92-0.29-3.38-0.88-1.46-0.58-2.44-1.49t-1.47-2.14q-0.5-1.22-0.5-2.75 0-2.32 1.19-3.96 1.19-1.63 3.22-2.49 2.03-0.85 4.49-0.85 2.31 0 4.29 0.69 1.97 0.7 3.22 1.76 1.03 0.82 1.03 1.89 0 0.78-0.61 1.42-0.6 0.65-1.42 0.65-0.53 0-0.96-0.32-0.57-0.5-1.53-0.95-0.96-0.44-2.03-0.75-1.07-0.3-1.99-0.3-1.53 0-2.58 0.39t-1.59 1.07q-0.53 0.68-0.53 1.57 0 1.07 0.62 1.76t1.8 1.1q1.17 0.41 2.81 0.73 2.14 0.39 3.76 0.93 1.62 0.53 2.68 1.37 1.07 0.83 1.6 2.1 0.54 1.26 0.54 3.08 0 2.31-1.28 3.98-1.28 1.68-3.37 2.57-2.08 0.89-4.5 0.89z"/>
</g>
<defs>
<filter id="text-effect-stroke-shadow-fk786wkcXDLtXC-HeLIFn" x="-.2" y="-.2" width="2" height="2">
<feDropShadow dx="1.8" dy="1" flood-color="#E69138" stdDeviation="0"/>
</filter>
</defs>
<g transform="translate(0 28.63)">
<g transform="scale(.99397)">
<g fill="#F7398A" filter="url(#a)" stroke="#f7398a" stroke-linecap="round" stroke-linejoin="round" stroke-width="2" data-gra-ignore-stroke="true" paint-order="stroke">
<path transform="translate(-1.14 20.19)" d="m16.06-18.94q0.74 0.37 0.87 1.17t-0.41 1.45q-0.37 0.51-0.95 0.57-0.59 0.06-1.18-0.23-0.69-0.31-1.44-0.48t-1.58-0.17q-1.53 0-2.74 0.48t-2.06 1.38q-0.86 0.9-1.3 2.12t-0.44 2.7q0 1.73 0.5 3.01t1.38 2.14q0.88 0.85 2.08 1.26 1.19 0.41 2.58 0.41 0.77 0 1.54-0.14t1.48-0.51q0.59-0.29 1.18-0.2 0.58 0.08 0.98 0.6 0.57 0.71 0.41 1.46t-0.87 1.1q-0.74 0.37-1.52 0.61t-1.58 0.37q-0.79 0.12-1.62 0.12-2.04 0-3.88-0.65-1.83-0.65-3.27-1.93-1.43-1.28-2.26-3.2-0.82-1.92-0.82-4.45 0-2.19 0.75-4.04t2.13-3.2 3.26-2.1q1.87-0.75 4.09-0.75 1.25 0 2.45 0.28 1.19 0.28 2.24 0.82zm23.21 8.99q0 2.13-0.71 3.98t-2.01 3.25q-1.29 1.41-3.07 2.21-1.77 0.79-3.88 0.79-2.1 0-3.86-0.79-1.77-0.8-3.06-2.21-1.29-1.4-2.01-3.25-0.71-1.85-0.71-3.98t0.71-3.98q0.72-1.85 2.01-3.26 1.29-1.4 3.06-2.2 1.76-0.8 3.86-0.8 2.11 0 3.88 0.8 1.78 0.8 3.07 2.2 1.3 1.41 2.01 3.26t0.71 3.98zm-3.7 0q0-1.91-0.77-3.46-0.76-1.54-2.1-2.45t-3.1-0.91-3.1 0.91q-1.33 0.91-2.09 2.44-0.75 1.54-0.75 3.47 0 1.9 0.75 3.45 0.76 1.55 2.09 2.46 1.34 0.91 3.1 0.91t3.1-0.91 2.1-2.46q0.77-1.55 0.77-3.45zm26.28 0q0 2.13-0.71 3.98t-2.01 3.25q-1.29 1.41-3.07 2.21-1.77 0.79-3.88 0.79-2.1 0-3.87-0.79-1.76-0.8-3.05-2.21-1.3-1.4-2.01-3.25t-0.71-3.98 0.71-3.98 2.01-3.26q1.29-1.4 3.05-2.2 1.77-0.8 3.87-0.8 2.11 0 3.88 0.8 1.78 0.8 3.07 2.2 1.3 1.41 2.01 3.26t0.71 3.98zm-3.7 0q0-1.91-0.77-3.46-0.76-1.54-2.1-2.45t-3.1-0.91-3.1 0.91q-1.33 0.91-2.09 2.44-0.75 1.54-0.75 3.47 0 1.9 0.75 3.45 0.76 1.55 2.09 2.46 1.34 0.91 3.1 0.91t3.1-0.91 2.1-2.46q0.77-1.55 0.77-3.45zm21.67 9.95q-0.79 0-1.28-0.65l-6.57-8.65 2.59-2.64 6.8 8.98q0.39 0.54 0.39 1.17 0 0.79-0.59 1.29-0.6 0.5-1.34 0.5zm0.34-20.04q0.68 0 1.13 0.55 0.44 0.55 0.44 1.12 0 0.6-0.52 1.11l-11.91 11.4-0.14-4.06 9.61-9.47q0.65-0.65 1.39-0.65zm-12.28 20.04q-0.8 0-1.28-0.5t-0.48-1.23v-16.44q0-0.74 0.51-1.23 0.51-0.5 1.31-0.5 0.79 0 1.26 0.5 0.47 0.49 0.47 1.23v16.44q0 0.73-0.48 1.23-0.49 0.5-1.31 0.5zm21.41-18.17v16.44q0 0.73-0.54 1.23t-1.25 0.5q-0.79 0-1.28-0.5-0.48-0.5-0.48-1.23v-16.44q0-0.74 0.51-1.23 0.51-0.5 1.31-0.5 0.68 0 1.21 0.5 0.52 0.49 0.52 1.23zm7-1.73h9.53q0.74 0 1.23 0.47 0.5 0.47 0.5 1.21 0 0.71-0.5 1.15-0.49 0.44-1.23 0.44h-7.96l0.25-0.49v5.55l-0.23-0.23h6.66q0.74 0 1.23 0.47 0.5 0.47 0.5 1.21 0 0.71-0.5 1.15-0.49 0.44-1.23 0.44h-6.57l0.14-0.23v5.75l-0.23-0.26h7.94q0.74 0 1.23 0.5 0.5 0.5 0.5 1.15 0 0.71-0.5 1.17-0.49 0.45-1.23 0.45h-9.53q-0.74 0-1.23-0.5-0.5-0.5-0.5-1.23v-16.44q0-0.74 0.5-1.23 0.49-0.5 1.23-0.5zm21.93 20.18q-1.99 0-3.58-0.49-1.6-0.5-3.05-1.75-0.37-0.31-0.56-0.71-0.2-0.4-0.2-0.8 0-0.65 0.47-1.15 0.46-0.5 1.18-0.5 0.54 0 0.96 0.34 1.08 0.88 2.15 1.34 1.06 0.45 2.63 0.45 1.05 0 1.93-0.32 0.88-0.33 1.42-0.88 0.54-0.56 0.54-1.27 0-0.85-0.51-1.45t-1.56-1.01-2.67-0.64q-1.54-0.23-2.71-0.69-1.16-0.47-1.94-1.2-0.79-0.72-1.18-1.7-0.4-0.99-0.4-2.21 0-1.85 0.95-3.15 0.95-1.31 2.57-1.99 1.62-0.69 3.59-0.69 1.84 0 3.42 0.56 1.58 0.55 2.58 1.41 0.82 0.65 0.82 1.5 0 0.63-0.48 1.14-0.49 0.51-1.14 0.51-0.43 0-0.77-0.25-0.45-0.4-1.22-0.76-0.77-0.35-1.62-0.59-0.85-0.25-1.59-0.25-1.23 0-2.06 0.32-0.84 0.31-1.27 0.85t-0.43 1.25q0 0.85 0.5 1.41 0.5 0.55 1.44 0.88t2.24 0.58q1.71 0.31 3 0.74 1.3 0.43 2.15 1.1 0.85 0.66 1.28 1.67 0.42 1.01 0.42 2.46 0 1.85-1.02 3.19-1.02 1.33-2.69 2.04-1.66 0.71-3.59 0.71z"/>
</g>
<defs>
<filter id="a" x="-.2" y="-.2" width="2" height="2">
<feDropShadow dx="1.8" dy="1" flood-color="#E69138" stdDeviation="0"/>
</filter>
</defs>
</g>
</g>
</g>
</g>
</g>
</g>
</svg>
