<svg data-v-6805eed4="" version="1.0" xmlns="http://www.w3.org/2000/svg" xmlns:xlink="http://www.w3.org/1999/xlink" width="100%" height="100%" viewBox="75 120 200 1" preserveAspectRatio="xMidYMid meet" color-interpolation-filters="sRGB" style="margin: auto;">
  <rect data-v-6805eed4="" x="0" y="0" width="100%" height="100%" fill="#00000000" fill-opacity="1" class="background"></rect>
  <rect data-v-6805eed4="" x="0" y="0" width="100%" height="100%" fill="url(#watermark)" fill-opacity="1" class="watermarklayer"></rect>
  <g data-v-6805eed4="" fill="#B44287" class="basesvg" transform="translate(76.71341705322266,67.08499908447266)">
    <g fill-rule="" class="tp-name">
      <g transform="scale(1.6200000000000006)">
        <g>
          <g filter="url(#text-effect-stroke-shadow-GsNzAM8VgpDFia9zpFyoa)" stroke="#B44287" stroke-width="2" stroke-linecap="round" stroke-linejoin="round" paint-order="stroke" data-gra-ignore-stroke="true">
            <path d="M52.1-70.3L52.1-70.3Q54.4-70.3 56.25-68.55 58.1-66.8 58.1-64.1L58.1-64.1Q58.1-63.2 57.85-62.25 57.6-61.3 57-60.4L57-60.4 34.3-27.9 36.1-34.8 36.1-6.1Q36.1-3.5 34.35-1.75 32.6 0 30.3 0L30.3 0Q27.8 0 26.05-1.75 24.3-3.5 24.3-6.1L24.3-6.1 24.3-34 25.1-30.8 3.5-59.5Q2.5-60.8 2.1-62 1.7-63.2 1.7-64.2L1.7-64.2Q1.7-66.9 3.8-68.6 5.9-70.3 8.1-70.3L8.1-70.3Q10.9-70.3 13-67.5L13-67.5 32.2-41 29.4-41.4 47.1-67.3Q49.2-70.3 52.1-70.3Z" transform="translate(-1.7000000476837158, 70.5)"></path>
          </g>
          <defs>
            <filter id="text-effect-stroke-shadow-GsNzAM8VgpDFia9zpFyoa" filterUnits="objectBoundingBox" width="2" height="2" x="-0.2" y="-0.2">
              <feDropShadow dx="1.8" dy="1" stdDeviation="0" flood-color="#E69138" flood-opacity="1"></feDropShadow>
            </filter>
          </defs>
        </g>
        <g transform="translate(59.39999771118164,0)">
          <g transform="scale(1)">
            <g filter="url(#text-effect-stroke-shadow-GsNzAM8VgpDFia9zpFyoa)" stroke="#f7398a" stroke-width="2" stroke-linecap="round" stroke-linejoin="round" paint-order="stroke" data-gra-ignore-stroke="true" fill="#F7398A">
              <path d="M56.5-66.6L56.5-66.6Q59.1-65.3 59.55-62.5 60-59.7 58.1-57.4L58.1-57.4Q56.8-55.6 54.75-55.4 52.7-55.2 50.6-56.2L50.6-56.2Q48.2-57.3 45.55-57.9 42.9-58.5 40-58.5L40-58.5Q34.6-58.5 30.35-56.8 26.1-55.1 23.1-51.95 20.1-48.8 18.55-44.5 17-40.2 17-35L17-35Q17-28.9 18.75-24.4 20.5-19.9 23.6-16.9 26.7-13.9 30.9-12.45 35.1-11 40-11L40-11Q42.7-11 45.4-11.5 48.1-12 50.6-13.3L50.6-13.3Q52.7-14.3 54.75-14 56.8-13.7 58.2-11.9L58.2-11.9Q60.2-9.4 59.65-6.75 59.1-4.1 56.6-2.9L56.6-2.9Q54-1.6 51.25-0.75 48.5 0.1 45.7 0.55 42.9 1 40 1L40 1Q32.8 1 26.35-1.3 19.9-3.6 14.85-8.1 9.8-12.6 6.9-19.35 4-26.1 4-35L4-35Q4-42.7 6.65-49.2 9.3-55.7 14.15-60.45 19-65.2 25.6-67.85 32.2-70.5 40-70.5L40-70.5Q44.4-70.5 48.6-69.5 52.8-68.5 56.5-66.6Z" transform="translate(-4, 70.5)"></path>
            </g>
            <defs>
              <filter id="text-effect-stroke-shadow-GsNzAM8VgpDFia9zpFyoa" filterUnits="objectBoundingBox" width="2" height="2" x="-0.2" y="-0.2">
                <feDropShadow dx="1.8" dy="1" stdDeviation="0" flood-color="#E69138" flood-opacity="1"></feDropShadow>
              </filter>
            </defs>
          </g>
        </g>
      </g>
    </g>
    <!---->
  </g>
  <defs v-gra="od"></defs>
</svg>